<?xml version="1.0" encoding="UTF-8"?>
<!DOCTYPE svg PUBLIC "-//W3C//DTD SVG 1.1//EN" "http://www.w3.org/Graphics/SVG/1.1/DTD/svg11.dtd">
<svg xmlns="http://www.w3.org/2000/svg" version="1.1" width="400px" height="400px" style="shape-rendering:geometricPrecision; text-rendering:geometricPrecision; image-rendering:optimizeQuality; fill-rule:evenodd; clip-rule:evenodd" xmlns:xlink="http://www.w3.org/1999/xlink">
<g><path style="opacity:0.991" fill="#fe6707" d="M 203.5,55.5 C 202.272,57.0098 202.272,58.5098 203.5,60C 200.833,60.6667 200.833,61.3333 203.5,62C 202.167,62.6667 202.167,63.3333 203.5,64C 200.833,64.6667 200.833,65.3333 203.5,66C 200.904,67.7972 201.237,69.1305 204.5,70C 200.728,71.3893 200.728,72.3893 204.5,73C 201.833,73.6667 201.833,74.3333 204.5,75C 201.456,75.3589 201.122,76.0255 203.5,77C 199.856,78.8303 200.19,80.4969 204.5,82C 200.11,83.222 199.444,85.5554 202.5,89C 201.366,90.016 201.699,90.6827 203.5,91C 202.572,91.3879 201.905,92.0546 201.5,93C 202.833,95.6667 202.833,98.3333 201.5,101C 201.905,101.945 202.572,102.612 203.5,103C 202.643,103.689 201.977,104.522 201.5,105.5C 202.747,107.042 202.747,108.542 201.5,110C 202.449,110.617 203.282,110.451 204,109.5C 204.464,110.094 204.631,110.761 204.5,111.5C 192.833,111.5 181.167,111.5 169.5,111.5C 169.631,110.761 169.464,110.094 169,109.5C 168.282,110.451 167.449,110.617 166.5,110C 167.833,109 167.833,108 166.5,107C 167.167,106.667 167.833,106.333 168.5,106C 164.206,102.442 164.54,101.276 169.5,102.5C 169.439,100.408 168.439,98.9078 166.5,98C 167.634,96.984 167.301,96.3173 165.5,96C 166.978,94.8069 168.312,94.3069 169.5,94.5C 169.163,92.5753 167.83,91.0753 165.5,90C 166.328,89.0853 167.328,88.4186 168.5,88C 167.956,87.2828 167.289,86.7828 166.5,86.5C 167.778,85.2505 168.778,83.7505 169.5,82C 166.38,78.5901 166.38,75.5901 169.5,73C 168.552,72.5172 167.552,72.3505 166.5,72.5C 166.577,71.2502 167.244,70.4169 168.5,70C 164.639,69.4309 164.639,68.5976 168.5,67.5C 168.376,66.8933 168.043,66.56 167.5,66.5C 178.152,58.8413 190.152,55.1746 203.5,55.5 Z"/></g>
<g><path style="opacity:0.983" fill="#fe6d09" d="M 203.5,55.5 C 208.259,56.7468 212.092,59.4135 215,63.5C 221.698,74.2311 227.864,85.2311 233.5,96.5C 233.79,98.11 232.79,99.2766 230.5,100C 231.257,101.512 232.257,102.846 233.5,104C 232.5,104.333 231.5,104.667 230.5,105C 231.672,105.419 232.672,106.085 233.5,107C 233.836,108.629 233.17,110.129 231.5,111.5C 222.5,111.5 213.5,111.5 204.5,111.5C 204.631,110.761 204.464,110.094 204,109.5C 203.282,110.451 202.449,110.617 201.5,110C 202.747,108.542 202.747,107.042 201.5,105.5C 201.977,104.522 202.643,103.689 203.5,103C 202.572,102.612 201.905,101.945 201.5,101C 202.833,98.3333 202.833,95.6667 201.5,93C 201.905,92.0546 202.572,91.3879 203.5,91C 201.699,90.6827 201.366,90.016 202.5,89C 199.444,85.5554 200.11,83.222 204.5,82C 200.19,80.4969 199.856,78.8303 203.5,77C 201.122,76.0255 201.456,75.3589 204.5,75C 201.833,74.3333 201.833,73.6667 204.5,73C 200.728,72.3893 200.728,71.3893 204.5,70C 201.237,69.1305 200.904,67.7972 203.5,66C 200.833,65.3333 200.833,64.6667 203.5,64C 202.167,63.3333 202.167,62.6667 203.5,62C 200.833,61.3333 200.833,60.6667 203.5,60C 202.272,58.5098 202.272,57.0098 203.5,55.5 Z"/></g>
<g><path style="opacity:0.819" fill="#fe700b" d="M 233.5,64.5 C 231.227,67.0097 231.227,69.6764 233.5,72.5C 232.332,73.9056 232.665,75.0723 234.5,76C 233.748,76.6708 233.414,77.5041 233.5,78.5C 229.357,72.8976 225.69,66.8976 222.5,60.5C 226.564,60.349 230.231,61.6823 233.5,64.5 Z"/></g>
<g><path style="opacity:0.961" fill="#fe720b" d="M 233.5,64.5 C 239.367,67.5961 245.033,70.9294 250.5,74.5C 250.082,75.2216 249.416,75.7216 248.5,76C 249.308,76.3076 249.975,76.8076 250.5,77.5C 249.833,78.5 249.167,79.5 248.5,80.5C 249.167,80.8333 249.833,81.1667 250.5,81.5C 249.098,82.8425 249.431,83.6758 251.5,84C 249.487,84.8753 249.487,86.2087 251.5,88C 251.167,88.3333 250.833,88.6667 250.5,89C 251.308,89.3076 251.975,89.8076 252.5,90.5C 250.934,89.9394 249.601,90.6061 248.5,92.5C 249.59,94.003 250.757,94.3363 252,93.5C 251.626,95.7687 251.626,98.102 252,100.5C 252.805,98.0989 253.638,98.2656 254.5,101C 253.24,102.113 252.073,102.28 251,101.5C 250.648,103.247 250.148,104.914 249.5,106.5C 243.664,97.5002 238.331,88.1669 233.5,78.5C 233.414,77.5041 233.748,76.6708 234.5,76C 232.665,75.0723 232.332,73.9056 233.5,72.5C 231.227,69.6764 231.227,67.0097 233.5,64.5 Z"/></g>
<g><path style="opacity:0.977" fill="#fe6005" d="M 167.5,66.5 C 168.043,66.56 168.376,66.8933 168.5,67.5C 164.639,68.5976 164.639,69.4309 168.5,70C 167.244,70.4169 166.577,71.2502 166.5,72.5C 165.046,73.5203 164.713,74.687 165.5,76C 163.915,76.0848 162.582,76.2514 161.5,76.5C 162.376,77.2508 163.376,77.7508 164.5,78C 163.328,78.4186 162.328,79.0853 161.5,80C 163.841,82.2651 165.507,84.4318 166.5,86.5C 167.289,86.7828 167.956,87.2828 168.5,88C 167.328,88.4186 166.328,89.0853 165.5,90C 167.83,91.0753 169.163,92.5753 169.5,94.5C 168.312,94.3069 166.978,94.8069 165.5,96C 167.301,96.3173 167.634,96.984 166.5,98C 168.439,98.9078 169.439,100.408 169.5,102.5C 164.54,101.276 164.206,102.442 168.5,106C 167.833,106.333 167.167,106.667 166.5,107C 167.833,108 167.833,109 166.5,110C 167.449,110.617 168.282,110.451 169,109.5C 169.464,110.094 169.631,110.761 169.5,111.5C 158.167,111.5 146.833,111.5 135.5,111.5C 136.278,110.844 136.944,110.011 137.5,109C 136.647,106.867 136.314,104.867 136.5,103C 138.398,102.36 138.732,101.027 137.5,99C 137.439,97.2894 138.106,95.956 139.5,95C 138.128,93.7581 137.128,92.2581 136.5,90.5C 140.327,89.9776 140.327,88.4776 136.5,86C 139.097,85.2208 139.097,84.7208 136.5,84.5C 146.334,77.7459 156.667,71.7459 167.5,66.5 Z"/></g>
<g><path style="opacity:0.982" fill="#fe750c" d="M 250.5,74.5 C 254.836,76.332 258.836,78.6654 262.5,81.5C 262.525,84.6185 262.191,87.7852 261.5,91C 263.441,92.8159 264.108,94.8159 263.5,97C 262.426,97.7387 261.759,98.7387 261.5,100C 262.607,101.44 262.607,102.94 261.5,104.5C 263.083,105.929 263.75,107.429 263.5,109C 262.833,110 262.167,111 261.5,112C 262.097,115.104 262.097,118.437 261.5,122C 262.167,122.667 262.833,123.333 263.5,124C 262.167,125 262.167,126 263.5,127C 262.956,127.717 262.289,128.217 261.5,128.5C 257.488,121.14 253.488,113.806 249.5,106.5C 250.148,104.914 250.648,103.247 251,101.5C 252.073,102.28 253.24,102.113 254.5,101C 253.638,98.2656 252.805,98.0989 252,100.5C 251.626,98.102 251.626,95.7687 252,93.5C 250.757,94.3363 249.59,94.003 248.5,92.5C 249.601,90.6061 250.934,89.9394 252.5,90.5C 251.975,89.8076 251.308,89.3076 250.5,89C 250.833,88.6667 251.167,88.3333 251.5,88C 249.487,86.2087 249.487,84.8753 251.5,84C 249.431,83.6758 249.098,82.8425 250.5,81.5C 249.833,81.1667 249.167,80.8333 248.5,80.5C 249.167,79.5 249.833,78.5 250.5,77.5C 249.975,76.8076 249.308,76.3076 248.5,76C 249.416,75.7216 250.082,75.2216 250.5,74.5 Z"/></g>
<g><path style="opacity:0.998" fill="#fe6306" d="M 166.5,72.5 C 167.552,72.3505 168.552,72.5172 169.5,73C 166.38,75.5901 166.38,78.5901 169.5,82C 168.778,83.7505 167.778,85.2505 166.5,86.5C 165.507,84.4318 163.841,82.2651 161.5,80C 162.328,79.0853 163.328,78.4186 164.5,78C 163.376,77.7508 162.376,77.2508 161.5,76.5C 162.582,76.2514 163.915,76.0848 165.5,76C 164.713,74.687 165.046,73.5203 166.5,72.5 Z"/></g>
<g><path style="opacity:0.988" fill="#fe790e" d="M 262.5,81.5 C 273.333,86.7459 283.666,92.7459 293.5,99.5C 292.272,101.01 292.272,102.51 293.5,104C 291.117,104.065 290.45,104.898 291.5,106.5C 290.96,107.748 290.293,108.915 289.5,110C 292.949,111.248 292.616,112.582 288.5,114C 290.779,114.406 292.113,115.739 292.5,118C 292.263,121.177 291.596,124.177 290.5,127C 293.228,127.639 293.728,128.806 292,130.5C 291.444,128.405 290.944,128.238 290.5,130C 290.905,130.945 291.572,131.612 292.5,132C 292.167,132.333 291.833,132.667 291.5,133C 294.279,133.149 294.779,133.983 293,135.5C 292.667,135.167 292.333,134.833 292,134.5C 291.691,135.766 291.191,136.933 290.5,138C 293.474,139.506 293.807,141.172 291.5,143C 291.833,144 292.167,145 292.5,146C 289.721,146.149 289.221,146.983 291,148.5C 291.718,147.549 292.551,147.383 293.5,148C 292.315,150.057 291.315,152.057 290.5,154C 289.879,156.498 290.545,158.832 292.5,161C 289.833,162 289.833,163 292.5,164C 291.619,164.708 290.953,165.542 290.5,166.5C 286.271,164.443 282.437,161.777 279,158.5C 272.903,148.637 267.069,138.637 261.5,128.5C 262.289,128.217 262.956,127.717 263.5,127C 262.167,126 262.167,125 263.5,124C 262.833,123.333 262.167,122.667 261.5,122C 262.097,118.437 262.097,115.104 261.5,112C 262.167,111 262.833,110 263.5,109C 263.75,107.429 263.083,105.929 261.5,104.5C 262.607,102.94 262.607,101.44 261.5,100C 261.759,98.7387 262.426,97.7387 263.5,97C 264.108,94.8159 263.441,92.8159 261.5,91C 262.191,87.7852 262.525,84.6185 262.5,81.5 Z"/></g>
<g><path style="opacity:0.974" fill="#fe5a03" d="M 136.5,84.5 C 139.097,84.7208 139.097,85.2208 136.5,86C 140.327,88.4776 140.327,89.9776 136.5,90.5C 137.128,92.2581 138.128,93.7581 139.5,95C 138.106,95.956 137.439,97.2894 137.5,99C 138.732,101.027 138.398,102.36 136.5,103C 136.314,104.867 136.647,106.867 137.5,109C 136.944,110.011 136.278,110.844 135.5,111.5C 126.167,111.5 116.833,111.5 107.5,111.5C 107.5,110.167 107.5,108.833 107.5,107.5C 104.664,107.798 104.164,107.131 106,105.5C 106.333,105.833 106.667,106.167 107,106.5C 107.273,104.899 107.773,103.399 108.5,102C 107.906,101.536 107.239,101.369 106.5,101.5C 116.167,95.3305 126.167,89.6639 136.5,84.5 Z"/></g>
<g><path style="opacity:0.94" fill="#fe710b" d="M 233.5,96.5 C 236.653,101.171 239.653,106.004 242.5,111C 242.333,111.5 242.167,112 242,112.5C 238.606,111.544 235.106,111.211 231.5,111.5C 233.17,110.129 233.836,108.629 233.5,107C 232.672,106.085 231.672,105.419 230.5,105C 231.5,104.667 232.5,104.333 233.5,104C 232.257,102.846 231.257,101.512 230.5,100C 232.79,99.2766 233.79,98.11 233.5,96.5 Z"/></g>
<g><path style="opacity:0.975" fill="#fe7f10" d="M 293.5,99.5 C 306.167,104.335 316.334,112.335 324,123.5C 325.741,126.309 326.908,129.309 327.5,132.5C 327.973,134.38 327.307,136.213 325.5,138C 327.715,139.943 327.715,141.609 325.5,143C 327.125,143.853 327.458,144.853 326.5,146C 327.094,146.464 327.761,146.631 328.5,146.5C 321.968,164.766 309.301,171.433 290.5,166.5C 290.953,165.542 291.619,164.708 292.5,164C 289.833,163 289.833,162 292.5,161C 290.545,158.832 289.879,156.498 290.5,154C 291.315,152.057 292.315,150.057 293.5,148C 292.551,147.383 291.718,147.549 291,148.5C 289.221,146.983 289.721,146.149 292.5,146C 292.167,145 291.833,144 291.5,143C 293.807,141.172 293.474,139.506 290.5,138C 291.191,136.933 291.691,135.766 292,134.5C 292.333,134.833 292.667,135.167 293,135.5C 294.779,133.983 294.279,133.149 291.5,133C 291.833,132.667 292.167,132.333 292.5,132C 291.572,131.612 290.905,130.945 290.5,130C 290.944,128.238 291.444,128.405 292,130.5C 293.728,128.806 293.228,127.639 290.5,127C 291.596,124.177 292.263,121.177 292.5,118C 292.113,115.739 290.779,114.406 288.5,114C 292.616,112.582 292.949,111.248 289.5,110C 290.293,108.915 290.96,107.748 291.5,106.5C 290.45,104.898 291.117,104.065 293.5,104C 292.272,102.51 292.272,101.01 293.5,99.5 Z"/></g>
<g><path style="opacity:0.931" fill="#fe5601" d="M 106.5,101.5 C 107.239,101.369 107.906,101.536 108.5,102C 107.773,103.399 107.273,104.899 107,106.5C 106.667,106.167 106.333,105.833 106,105.5C 104.164,107.131 104.664,107.798 107.5,107.5C 107.5,108.833 107.5,110.167 107.5,111.5C 102.156,111.666 96.8229,111.499 91.5,111C 95.8807,106.812 100.881,103.646 106.5,101.5 Z"/></g>
<g><path style="opacity:0.966" fill="#fe5903" d="M 97.5,119.5 C 110.167,119.5 122.833,119.5 135.5,119.5C 136.609,120.29 137.942,120.79 139.5,121C 138.257,122.154 137.257,123.488 136.5,125C 139.809,127.406 139.809,129.406 136.5,131C 137.756,131.417 138.423,132.25 138.5,133.5C 129.335,150.502 119.668,167.169 109.5,183.5C 106.903,183.279 106.903,182.779 109.5,182C 108.552,181.517 107.552,181.351 106.5,181.5C 106.966,179.799 106.966,178.299 106.5,177C 107.711,176.213 108.711,175.546 109.5,175C 107.436,171.919 107.769,168.919 110.5,166C 107.091,164.331 106.758,161.998 109.5,159C 108.272,158.221 107.272,157.221 106.5,156C 107.788,156.027 108.788,155.027 109.5,153C 107.986,151.561 107.653,150.061 108.5,148.5C 106.009,147.459 106.009,146.626 108.5,146C 107.717,143.487 107.383,140.82 107.5,138C 110.028,136.684 110.028,135.517 107.5,134.5C 107.833,133.167 108.167,131.833 108.5,130.5C 107.975,129.808 107.308,129.308 106.5,129C 107.636,127.47 108.636,126.137 109.5,125C 107.606,123.921 107.273,122.587 108.5,121C 104.644,120.823 100.977,120.323 97.5,119.5 Z"/></g>
<g><path style="opacity:0.992" fill="#fe5401" d="M 97.5,119.5 C 100.977,120.323 104.644,120.823 108.5,121C 107.273,122.587 107.606,123.921 109.5,125C 108.636,126.137 107.636,127.47 106.5,129C 107.308,129.308 107.975,129.808 108.5,130.5C 108.167,131.833 107.833,133.167 107.5,134.5C 110.028,135.517 110.028,136.684 107.5,138C 107.383,140.82 107.717,143.487 108.5,146C 106.009,146.626 106.009,147.459 108.5,148.5C 107.653,150.061 107.986,151.561 109.5,153C 108.788,155.027 107.788,156.027 106.5,156C 107.272,157.221 108.272,158.221 109.5,159C 106.758,161.998 107.091,164.331 110.5,166C 107.769,168.919 107.436,171.919 109.5,175C 108.711,175.546 107.711,176.213 106.5,177C 106.966,178.299 106.966,179.799 106.5,181.5C 107.552,181.351 108.552,181.517 109.5,182C 106.903,182.779 106.903,183.279 109.5,183.5C 99.6688,201.834 89.3355,219.834 78.5,237.5C 78.0825,236.778 77.4158,236.278 76.5,236C 78.797,234.84 78.4637,233.84 75.5,233C 76.448,232.517 77.448,232.351 78.5,232.5C 78.3601,230.876 79.0267,229.71 80.5,229C 79.1667,228.667 77.8333,228.333 76.5,228C 77.5,226.333 78.5,224.667 79.5,223C 78.1667,222.333 77.1667,221.333 76.5,220C 77.6872,218.981 78.6872,217.814 79.5,216.5C 78.9747,215.808 78.3081,215.308 77.5,215C 77.6382,212.692 78.3048,210.692 79.5,209C 78.8333,207.667 77.8333,206.667 76.5,206C 78.3008,205.683 78.6341,205.016 77.5,204C 79.4574,201.879 79.9574,199.379 79,196.5C 75.6433,195.258 75.81,194.424 79.5,194C 80.0606,192.434 79.3939,191.101 77.5,190C 78.8333,188.667 78.8333,187.333 77.5,186C 78.3567,185.311 79.0233,184.478 79.5,183.5C 78.5,183.5 77.5,183.5 76.5,183.5C 78.2706,182.012 79.6039,180.179 80.5,178C 77.5363,177.16 77.203,176.16 79.5,175C 75.4852,172.667 75.8186,171.001 80.5,170C 79.8333,169.333 79.1667,168.667 78.5,168C 78.8333,166.333 79.1667,164.667 79.5,163C 77.203,161.84 77.5363,160.84 80.5,160C 77.3323,159.418 76.999,158.418 79.5,157C 77.0087,156.374 77.0087,155.541 79.5,154.5C 78.9747,153.808 78.3081,153.308 77.5,153C 79.8914,149.835 79.5581,146.835 76.5,144C 77.3279,143.085 78.3279,142.419 79.5,142C 78.8333,141 78.1667,140 77.5,139C 77.8333,137.333 78.1667,135.667 78.5,134C 77.8333,133.667 77.1667,133.333 76.5,133C 78.1554,131.556 78.822,129.722 78.5,127.5C 78.5106,125.983 79.1772,124.816 80.5,124C 85.7709,121.078 91.4376,119.578 97.5,119.5 Z"/></g>
<g><path style="opacity:0.9" fill="#fe5e05" d="M 135.5,119.5 C 139.226,119.177 142.893,119.511 146.5,120.5C 144.059,125.065 141.392,129.398 138.5,133.5C 138.423,132.25 137.756,131.417 136.5,131C 139.809,129.406 139.809,127.406 136.5,125C 137.257,123.488 138.257,122.154 139.5,121C 137.942,120.79 136.609,120.29 135.5,119.5 Z"/></g>
<g><path style="opacity:0.938" fill="#fe5000" d="M 78.5,127.5 C 78.822,129.722 78.1554,131.556 76.5,133C 77.1667,133.333 77.8333,133.667 78.5,134C 78.1667,135.667 77.8333,137.333 77.5,139C 78.1667,140 78.8333,141 79.5,142C 78.3279,142.419 77.3279,143.085 76.5,144C 79.5581,146.835 79.8914,149.835 77.5,153C 78.3081,153.308 78.9747,153.808 79.5,154.5C 77.0087,155.541 77.0087,156.374 79.5,157C 76.999,158.418 77.3323,159.418 80.5,160C 77.5363,160.84 77.203,161.84 79.5,163C 79.1667,164.667 78.8333,166.333 78.5,168C 79.1667,168.667 79.8333,169.333 80.5,170C 75.8186,171.001 75.4852,172.667 79.5,175C 77.203,176.16 77.5363,177.16 80.5,178C 79.6039,180.179 78.2706,182.012 76.5,183.5C 77.5,183.5 78.5,183.5 79.5,183.5C 79.0233,184.478 78.3567,185.311 77.5,186C 78.8333,187.333 78.8333,188.667 77.5,190C 79.3939,191.101 80.0606,192.434 79.5,194C 75.81,194.424 75.6433,195.258 79,196.5C 79.9574,199.379 79.4574,201.879 77.5,204C 78.6341,205.016 78.3008,205.683 76.5,206C 77.8333,206.667 78.8333,207.667 79.5,209C 78.3048,210.692 77.6382,212.692 77.5,215C 78.3081,215.308 78.9747,215.808 79.5,216.5C 78.6872,217.814 77.6872,218.981 76.5,220C 77.1667,221.333 78.1667,222.333 79.5,223C 78.5,224.667 77.5,226.333 76.5,228C 77.8333,228.333 79.1667,228.667 80.5,229C 79.0267,229.71 78.3601,230.876 78.5,232.5C 77.448,232.351 76.448,232.517 75.5,233C 78.4637,233.84 78.797,234.84 76.5,236C 77.4158,236.278 78.0825,236.778 78.5,237.5C 76.2796,242.272 73.7796,246.938 71,251.5C 70.6667,250.833 70.3333,250.167 70,249.5C 69.3333,215.833 69.3333,182.167 70,148.5C 71.2156,140.75 74.0489,133.75 78.5,127.5 Z"/></g>
<g><path style="opacity:0.912" fill="#ff8311" d="M 327.5,132.5 C 328.486,136.97 328.819,141.637 328.5,146.5C 327.761,146.631 327.094,146.464 326.5,146C 327.458,144.853 327.125,143.853 325.5,143C 327.715,141.609 327.715,139.943 325.5,138C 327.307,136.213 327.973,134.38 327.5,132.5 Z"/></g>
<g><path style="opacity:0.985" fill="#fe5501" d="M 108.5,212.5 C 107.294,213.88 107.627,215.047 109.5,216C 108.167,217 108.167,218 109.5,219C 107.136,220.012 105.802,221.345 105.5,223C 106.659,224.827 107.992,226.493 109.5,228C 107.996,229.337 106.996,231.004 106.5,233C 109.167,233.667 109.167,234.333 106.5,235C 107.357,235.689 108.023,236.522 108.5,237.5C 108.306,239.07 108.306,240.57 108.5,242C 106.203,243.16 106.536,244.16 109.5,245C 108.167,245.667 108.167,246.333 109.5,247C 108.376,247.249 107.376,247.749 106.5,248.5C 109.078,248.677 109.078,249.843 106.5,252C 107.167,252.333 107.833,252.667 108.5,253C 107.87,254.892 106.87,256.559 105.5,258C 108.87,258.993 109.87,260.993 108.5,264C 108.903,265.473 109.57,266.806 110.5,268C 109.5,268.333 108.5,268.667 107.5,269C 110.993,270.088 111.159,271.255 108,272.5C 107.661,275.036 107.161,277.536 106.5,280C 108.263,281.654 108.596,283.487 107.5,285.5C 108.025,286.192 108.692,286.692 109.5,287C 108.386,288.449 107.386,289.783 106.5,291C 109.167,291.667 109.167,292.333 106.5,293C 108.49,294.84 108.49,296.007 106.5,296.5C 91.047,290.553 81.047,279.719 76.5,264C 76.7134,260.358 77.5468,256.858 79,253.5C 88,238.167 97,222.833 106,207.5C 106.847,209.193 107.68,210.86 108.5,212.5 Z"/></g>
<g><path style="opacity:0.983" fill="#fe5a03" d="M 108.5,212.5 C 118.668,228.831 128.335,245.498 137.5,262.5C 136.609,263.261 135.942,264.261 135.5,265.5C 136.962,265.065 137.962,265.898 138.5,268C 138.235,270.151 137.235,271.818 135.5,273C 136.793,273.49 138.127,273.657 139.5,273.5C 139.5,274.5 139.5,275.5 139.5,276.5C 136.402,276.413 136.068,276.913 138.5,278C 137.5,278.333 136.5,278.667 135.5,279C 137.087,279.862 138.754,280.529 140.5,281C 137.743,282.03 136.409,283.697 136.5,286C 139.167,286.667 139.167,287.333 136.5,288C 137.357,288.689 138.023,289.522 138.5,290.5C 137.289,291.72 137.289,292.887 138.5,294C 135.904,295.797 136.237,297.131 139.5,298C 138.833,298.333 138.167,298.667 137.5,299C 138.711,299.893 138.711,300.726 137.5,301.5C 136.604,300.494 135.938,300.494 135.5,301.5C 136.04,302.748 136.707,303.915 137.5,305C 137.167,305.333 136.833,305.667 136.5,306C 137.5,306.333 138.5,306.667 139.5,307C 137.285,307.388 135.952,308.388 135.5,310C 140.365,310.798 140.031,311.632 134.5,312.5C 124.833,307.669 115.5,302.336 106.5,296.5C 108.49,296.007 108.49,294.84 106.5,293C 109.167,292.333 109.167,291.667 106.5,291C 107.386,289.783 108.386,288.449 109.5,287C 108.692,286.692 108.025,286.192 107.5,285.5C 108.596,283.487 108.263,281.654 106.5,280C 107.161,277.536 107.661,275.036 108,272.5C 111.159,271.255 110.993,270.088 107.5,269C 108.5,268.667 109.5,268.333 110.5,268C 109.57,266.806 108.903,265.473 108.5,264C 109.87,260.993 108.87,258.993 105.5,258C 106.87,256.559 107.87,254.892 108.5,253C 107.833,252.667 107.167,252.333 106.5,252C 109.078,249.843 109.078,248.677 106.5,248.5C 107.376,247.749 108.376,247.249 109.5,247C 108.167,246.333 108.167,245.667 109.5,245C 106.536,244.16 106.203,243.16 108.5,242C 108.306,240.57 108.306,239.07 108.5,237.5C 108.023,236.522 107.357,235.689 106.5,235C 109.167,234.333 109.167,233.667 106.5,233C 106.996,231.004 107.996,229.337 109.5,228C 107.992,226.493 106.659,224.827 105.5,223C 105.802,221.345 107.136,220.012 109.5,219C 108.167,218 108.167,217 109.5,216C 107.627,215.047 107.294,213.88 108.5,212.5 Z"/></g>
<g><path style="opacity:0.972" fill="#fe7f10" d="M 298.5,278.5 C 296.393,277.532 294.059,277.198 291.5,277.5C 291.67,276.178 291.337,275.011 290.5,274C 291.672,273.581 292.672,272.915 293.5,272C 290.018,268.827 289.685,265.827 292.5,263C 289.833,262.333 289.833,261.667 292.5,261C 291.167,260.333 291.167,259.667 292.5,259C 291.833,258.667 291.167,258.333 290.5,258C 291.5,257.167 292.5,256.333 293.5,255.5C 292.248,253.999 291.248,252.332 290.5,250.5C 290.977,249.522 291.643,248.689 292.5,248C 291.692,247.692 291.025,247.192 290.5,246.5C 291.833,245.5 291.833,244.5 290.5,243.5C 293.028,242.483 293.028,241.316 290.5,240C 291.167,239.333 291.833,238.667 292.5,238C 292.384,236.732 292.051,235.398 291.5,234C 292.381,233.292 293.047,232.458 293.5,231.5C 311.168,228.416 322.668,235.416 328,252.5C 329.587,260.388 328.087,267.554 323.5,274C 315.69,277.947 307.356,279.447 298.5,278.5 Z"/></g>
<g><path style="opacity:0.961" fill="#fe7a0e" d="M 293.5,231.5 C 293.047,232.458 292.381,233.292 291.5,234C 292.051,235.398 292.384,236.732 292.5,238C 291.833,238.667 291.167,239.333 290.5,240C 293.028,241.316 293.028,242.483 290.5,243.5C 291.833,244.5 291.833,245.5 290.5,246.5C 291.025,247.192 291.692,247.692 292.5,248C 291.643,248.689 290.977,249.522 290.5,250.5C 291.248,252.332 292.248,253.999 293.5,255.5C 292.5,256.333 291.5,257.167 290.5,258C 291.167,258.333 291.833,258.667 292.5,259C 291.167,259.667 291.167,260.333 292.5,261C 289.833,261.667 289.833,262.333 292.5,263C 289.685,265.827 290.018,268.827 293.5,272C 292.672,272.915 291.672,273.581 290.5,274C 291.337,275.011 291.67,276.178 291.5,277.5C 294.059,277.198 296.393,277.532 298.5,278.5C 289.5,278.5 280.5,278.5 271.5,278.5C 268.359,277.679 265.025,277.179 261.5,277C 262.5,276 263.5,275 264.5,274C 263.437,272.812 262.103,272.312 260.5,272.5C 265.803,261.897 271.636,251.564 278,241.5C 282.261,236.735 287.428,233.401 293.5,231.5 Z"/></g>
<g><path style="opacity:0.967" fill="#fe5f05" d="M 137.5,262.5 C 147.737,279.3 157.737,296.3 167.5,313.5C 166.5,313.5 165.5,313.5 164.5,313.5C 165.506,316.416 165.506,319.416 164.5,322.5C 165.98,323.113 167.313,323.446 168.5,323.5C 166.392,324.355 164.226,325.022 162,325.5C 160.97,325.836 160.47,326.503 160.5,327.5C 151.312,323.291 142.645,318.291 134.5,312.5C 140.031,311.632 140.365,310.798 135.5,310C 135.952,308.388 137.285,307.388 139.5,307C 138.5,306.667 137.5,306.333 136.5,306C 136.833,305.667 137.167,305.333 137.5,305C 136.707,303.915 136.04,302.748 135.5,301.5C 135.938,300.494 136.604,300.494 137.5,301.5C 138.711,300.726 138.711,299.893 137.5,299C 138.167,298.667 138.833,298.333 139.5,298C 136.237,297.131 135.904,295.797 138.5,294C 137.289,292.887 137.289,291.72 138.5,290.5C 138.023,289.522 137.357,288.689 136.5,288C 139.167,287.333 139.167,286.667 136.5,286C 136.409,283.697 137.743,282.03 140.5,281C 138.754,280.529 137.087,279.862 135.5,279C 136.5,278.667 137.5,278.333 138.5,278C 136.068,276.913 136.402,276.413 139.5,276.5C 139.5,275.5 139.5,274.5 139.5,273.5C 138.127,273.657 136.793,273.49 135.5,273C 137.235,271.818 138.235,270.151 138.5,268C 137.962,265.898 136.962,265.065 135.5,265.5C 135.942,264.261 136.609,263.261 137.5,262.5 Z"/></g>
<g><path style="opacity:0.251" fill="#fe760c" d="M 260.5,272.5 C 262.103,272.312 263.437,272.812 264.5,274C 263.5,275 262.5,276 261.5,277C 265.025,277.179 268.359,277.679 271.5,278.5C 266.833,278.5 262.167,278.5 257.5,278.5C 257.654,276.03 258.654,274.03 260.5,272.5 Z"/></g>
<g><path style="opacity:0.971" fill="#fe6708" d="M 166.5,286.5 C 177.833,286.5 189.167,286.5 200.5,286.5C 200.918,287.222 201.584,287.722 202.5,288C 201.167,289.84 201.334,290.34 203,289.5C 203.167,290.333 203.333,291.167 203.5,292C 203.944,295.323 202.944,297.99 200.5,300C 202.592,300.953 202.925,302.286 201.5,304C 202.167,305 202.833,306 203.5,307C 203.5,308.333 203.5,309.667 203.5,311C 202.833,311.333 202.167,311.667 201.5,312C 202.167,313.333 202.833,314.667 203.5,316C 202.833,316.333 202.167,316.667 201.5,317C 202.364,318.137 203.364,319.47 204.5,321C 200.777,322.968 200.777,324.635 204.5,326C 200.728,327.389 200.728,328.389 204.5,329C 201.833,329.667 201.833,330.333 204.5,331C 201.456,331.359 201.122,332.026 203.5,333C 199.856,334.83 200.19,336.497 204.5,338C 203.5,338.333 202.5,338.667 201.5,339C 203.734,340.585 206.067,341.752 208.5,342.5C 201.233,343.778 195.066,341.778 190,336.5C 181.971,323.772 174.471,310.772 167.5,297.5C 168.653,296.687 168.653,295.687 167.5,294.5C 169.991,293.459 169.991,292.626 167.5,292C 167.833,291.667 168.167,291.333 168.5,291C 167.733,289.53 167.067,288.03 166.5,286.5 Z"/></g>
<g><path style="opacity:0.987" fill="#fe6d0a" d="M 200.5,286.5 C 210.833,286.5 221.167,286.5 231.5,286.5C 231.511,288.017 232.177,289.184 233.5,290C 231.431,290.324 231.098,291.158 232.5,292.5C 231.752,294.332 230.752,295.999 229.5,297.5C 230.868,298.594 232.035,298.26 233,296.5C 233.342,298.818 232.842,300.985 231.5,303C 232.634,304.016 232.301,304.683 230.5,305C 231.109,307.058 232.109,307.891 233.5,307.5C 232.975,308.192 232.308,308.692 231.5,309C 231.888,312.527 231.888,316.193 231.5,320C 232.167,320.333 232.833,320.667 233.5,321C 232.547,322.955 231.213,324.622 229.5,326C 230.453,327.955 231.787,329.622 233.5,331C 232.226,331.977 232.226,332.811 233.5,333.5C 226.037,338.656 217.704,341.656 208.5,342.5C 206.067,341.752 203.734,340.585 201.5,339C 202.5,338.667 203.5,338.333 204.5,338C 200.19,336.497 199.856,334.83 203.5,333C 201.122,332.026 201.456,331.359 204.5,331C 201.833,330.333 201.833,329.667 204.5,329C 200.728,328.389 200.728,327.389 204.5,326C 200.777,324.635 200.777,322.968 204.5,321C 203.364,319.47 202.364,318.137 201.5,317C 202.167,316.667 202.833,316.333 203.5,316C 202.833,314.667 202.167,313.333 201.5,312C 202.167,311.667 202.833,311.333 203.5,311C 203.5,309.667 203.5,308.333 203.5,307C 202.833,306 202.167,305 201.5,304C 202.925,302.286 202.592,300.953 200.5,300C 202.944,297.99 203.944,295.323 203.5,292C 203.333,291.167 203.167,290.333 203,289.5C 201.334,290.34 201.167,289.84 202.5,288C 201.584,287.722 200.918,287.222 200.5,286.5 Z"/></g>
<g><path style="opacity:0.987" fill="#fe720b" d="M 231.5,286.5 C 237.167,286.5 242.833,286.5 248.5,286.5C 250.01,288.193 251.677,289.027 253.5,289C 252.377,290.044 251.044,290.71 249.5,291C 252.096,292.797 251.763,294.131 248.5,295C 249.167,295.333 249.833,295.667 250.5,296C 251.022,298.186 251.022,300.519 250.5,303C 253.955,304.903 254.288,307.237 251.5,310C 252.167,310.333 252.833,310.667 253.5,311C 252.167,311.667 252.167,312.333 253.5,313C 251.893,313.115 250.393,312.615 249,311.5C 248.5,311.667 248,311.833 247.5,312C 248.833,313 248.833,314 247.5,315C 250.943,315.221 251.276,316.221 248.5,318C 250.043,319.739 251.71,321.239 253.5,322.5C 246.816,326.195 240.15,329.862 233.5,333.5C 232.226,332.811 232.226,331.977 233.5,331C 231.787,329.622 230.453,327.955 229.5,326C 231.213,324.622 232.547,322.955 233.5,321C 232.833,320.667 232.167,320.333 231.5,320C 231.888,316.193 231.888,312.527 231.5,309C 232.308,308.692 232.975,308.192 233.5,307.5C 232.109,307.891 231.109,307.058 230.5,305C 232.301,304.683 232.634,304.016 231.5,303C 232.842,300.985 233.342,298.818 233,296.5C 232.035,298.26 230.868,298.594 229.5,297.5C 230.752,295.999 231.752,294.332 232.5,292.5C 231.098,291.158 231.431,290.324 233.5,290C 232.177,289.184 231.511,288.017 231.5,286.5 Z"/></g>
<g><path style="opacity:0.983" fill="#fe750c" d="M 248.5,286.5 C 252.833,286.5 257.167,286.5 261.5,286.5C 262.42,288.881 262.42,291.214 261.5,293.5C 264.076,294.883 263.742,295.717 260.5,296C 262.045,297.688 263.045,299.688 263.5,302C 261.009,302.626 261.009,303.459 263.5,304.5C 262.167,305.5 262.167,306.5 263.5,307.5C 260.972,308.517 260.972,309.684 263.5,311C 261.043,312.512 261.043,313.846 263.5,315C 260.903,315.779 260.903,316.279 263.5,316.5C 260.202,318.485 256.869,320.485 253.5,322.5C 251.71,321.239 250.043,319.739 248.5,318C 251.276,316.221 250.943,315.221 247.5,315C 248.833,314 248.833,313 247.5,312C 248,311.833 248.5,311.667 249,311.5C 250.393,312.615 251.893,313.115 253.5,313C 252.167,312.333 252.167,311.667 253.5,311C 252.833,310.667 252.167,310.333 251.5,310C 254.288,307.237 253.955,304.903 250.5,303C 251.022,300.519 251.022,298.186 250.5,296C 249.833,295.667 249.167,295.333 248.5,295C 251.763,294.131 252.096,292.797 249.5,291C 251.044,290.71 252.377,290.044 253.5,289C 251.677,289.027 250.01,288.193 248.5,286.5 Z"/></g>
<g><path style="opacity:0.973" fill="#fe790e" d="M 261.5,286.5 C 270.167,286.5 278.833,286.5 287.5,286.5C 288.848,287.186 290.015,288.186 291,289.5C 291.333,289.167 291.667,288.833 292,288.5C 292.576,290.377 292.409,292.211 291.5,294C 292.856,295.567 293.523,297.4 293.5,299.5C 283.5,305.167 273.5,310.833 263.5,316.5C 260.903,316.279 260.903,315.779 263.5,315C 261.043,313.846 261.043,312.512 263.5,311C 260.972,309.684 260.972,308.517 263.5,307.5C 262.167,306.5 262.167,305.5 263.5,304.5C 261.009,303.459 261.009,302.626 263.5,302C 263.045,299.688 262.045,297.688 260.5,296C 263.742,295.717 264.076,294.883 261.5,293.5C 262.42,291.214 262.42,288.881 261.5,286.5 Z"/></g>
<g><path style="opacity:0.874" fill="#fe7e0f" d="M 287.5,286.5 C 295.84,286.334 304.173,286.5 312.5,287C 306.481,291.674 300.147,295.841 293.5,299.5C 293.523,297.4 292.856,295.567 291.5,294C 292.409,292.211 292.576,290.377 292,288.5C 291.667,288.833 291.333,289.167 291,289.5C 290.015,288.186 288.848,287.186 287.5,286.5 Z"/></g>
<g><path style="opacity:1" fill="#fe6306" d="M 166.5,286.5 C 167.067,288.03 167.733,289.53 168.5,291C 168.167,291.333 167.833,291.667 167.5,292C 169.991,292.626 169.991,293.459 167.5,294.5C 168.653,295.687 168.653,296.687 167.5,297.5C 165.066,294.151 162.733,290.651 160.5,287C 162.473,286.505 164.473,286.338 166.5,286.5 Z"/></g>
<g><path style="opacity:0.876" fill="#fe6407" d="M 167.5,313.5 C 172.139,321.816 176.805,330.15 181.5,338.5C 178.999,338.286 176.332,337.453 173.5,336C 168.76,333.64 164.426,330.807 160.5,327.5C 160.47,326.503 160.97,325.836 162,325.5C 164.226,325.022 166.392,324.355 168.5,323.5C 167.313,323.446 165.98,323.113 164.5,322.5C 165.506,319.416 165.506,316.416 164.5,313.5C 165.5,313.5 166.5,313.5 167.5,313.5 Z"/></g>
</svg>
